#N canvas 37 70 1266 638 10;
#X obj 79 265 bng 15 250 50 0 empty empty empty 17 7 0 10 -262144 -1
-1;
#X obj 104 265 bng 15 250 50 0 empty empty empty 17 7 0 10 -262144
-1 -1;
#X obj 54 265 bng 15 250 50 0 empty empty empty 17 7 0 10 -262144 -1
-1;
#X obj 129 265 bng 15 250 50 0 empty empty empty 17 7 0 10 -262144
-1 -1;
#X obj 54 234 select 0 5 45;
#X msg 81 151 5;
#X msg 81 128 0;
#X msg 81 173 45;
#X msg 81 196 100;
#X obj 746 211 gate 4;
#X obj 746 140 hradio 15 1 0 4 empty empty empty 0 -8 0 10 -262144
-1 -1 0;
#X floatatom 814 165 5 0 0 0 - - -;
#X floatatom 746 258 5 0 0 0 - - -;
#X floatatom 757 284 5 0 0 0 - - -;
#X floatatom 768 308 5 0 0 0 - - -;
#X floatatom 779 331 5 0 0 0 - - -;
#X obj 746 170 + 1;
#X text 56 288 Outlet: bang;
#X text 719 47 gate: switch the gate;
#X text 643 170 switch the gate;
#X obj 478 237 route 0 5 45;
#X msg 504 173 45 fortyfive;
#X msg 503 149 5 five;
#X msg 503 124 0 zero;
#X msg 504 195 Other;
#X obj 501 298 print middle;
#X obj 547 353 print other;
#X obj 524 326 print right;
#X msg 289 151 2 49;
#X obj 276 216 spray 3;
#X msg 289 174 0 6;
#X floatatom 276 255 5 0 0 0 - - -;
#X floatatom 295 276 5 0 0 0 - - -;
#X floatatom 315 301 5 0 0 0 - - -;
#X text 20 29 Example: Routing;
#X floatatom 1016 267 5 0 0 0 - - -;
#X floatatom 1066 267 5 0 0 0 - - -;
#X symbolatom 1118 267 10 0 0 0 - - -;
#X text 206 49 spray: distribute values to a numbered outlet;
#X text 18 78 select: send bang to specified outlet;
#X text 431 76 route: route a message according to the first element
;
#X text 814 185 send data to specified outlet;
#X text 995 70 unpack: split values to each outlet;
#X text 1103 175 f: floating value i: integer value s: string;
#X msg 334 181 2 50;
#X obj 478 273 print l;
#X msg 288 126 1 10;
#X obj 1016 206 unpack 0 i s;
#X msg 1016 143 0.1 0.1 0.1;
#X connect 4 0 2 0;
#X connect 4 1 0 0;
#X connect 4 2 1 0;
#X connect 4 3 3 0;
#X connect 5 0 4 0;
#X connect 6 0 4 0;
#X connect 7 0 4 0;
#X connect 8 0 4 0;
#X connect 9 0 12 0;
#X connect 9 1 13 0;
#X connect 9 2 14 0;
#X connect 9 3 15 0;
#X connect 10 0 16 0;
#X connect 11 0 9 1;
#X connect 16 0 9 0;
#X connect 20 0 45 0;
#X connect 20 1 25 0;
#X connect 20 2 27 0;
#X connect 20 3 26 0;
#X connect 21 0 20 0;
#X connect 22 0 20 0;
#X connect 23 0 20 0;
#X connect 24 0 20 0;
#X connect 28 0 29 0;
#X connect 29 0 31 0;
#X connect 29 1 32 0;
#X connect 29 2 33 0;
#X connect 30 0 29 0;
#X connect 44 0 29 0;
#X connect 46 0 29 0;
#X connect 47 0 35 0;
#X connect 47 1 36 0;
#X connect 47 2 37 0;
#X connect 48 0 47 0;
