#N canvas 299 79 535 559 10;
#X text 48 11 Example Canvas;
#X obj 214 148 hsl 128 15 0 127 0 0 empty empty empty -2 -8 0 10 -262144
-1 -1 0 1;
#X floatatom 211 199 5 0 0 0 - - -;
#X obj 178 231 *~ 0.5;
#X obj 83 344 vu 15 120 empty empty -1 -8 0 10 -66577 -1 1 0;
#X obj 178 327 dac~ 1 2;
#X obj 211 173 / 127;
#X obj 82 284 env~ 128;
#X obj 82 305 - 100;
#X obj 179 80 tgl 15 0 empty empty empty 17 7 0 10 -262144 -1 -1 0
1;
#N canvas 874 98 501 350 readfile 1;
#X obj 91 199 readsf~;
#X msg 178 76 \; pd dsp \$1;
#X msg 63 146 0;
#X obj 63 84 select 0 1;
#X obj 63 21 inlet;
#X obj 91 260 outlet~;
#X text 150 259 Create outlet;
#X text 111 16 Create inlet here. Same number of inlets will be created
on the box.;
#X msg 91 145 open ./SoundSource/shclkonk.wav \, 1;
#X connect 0 0 5 0;
#X connect 0 1 8 0;
#X connect 2 0 0 0;
#X connect 3 0 2 0;
#X connect 3 1 8 0;
#X connect 4 0 3 0;
#X connect 4 0 1 0;
#X connect 8 0 0 0;
#X restore 179 111 pd readfile;
#X text 258 108 <-- Check inside of this subcanvas Right click / open
;
#X text 49 28 Useful to simplify the patch;
#X connect 1 0 6 0;
#X connect 2 0 3 1;
#X connect 3 0 5 0;
#X connect 3 0 5 1;
#X connect 3 0 7 0;
#X connect 6 0 2 0;
#X connect 7 0 8 0;
#X connect 8 0 4 0;
#X connect 9 0 10 0;
#X connect 10 0 3 0;
