#N canvas 1091 338 423 333 10;
#X msg 41 139 Hello World;
#X obj 41 85 bng 15 250 50 0 empty empty empty 17 7 0 10 -262144 -1
-1;
#X obj 41 202 print;
#X text 21 21 Example1: Hello world with Pure data;
#X text 132 141 Message: send message to connected object;
#X text 75 83 Bang: send bang to connected object;
#X text 33 63 Click!;
#X text 51 117 Click!;
#X text 102 200 Print: Print out the message to debug window;
#X connect 0 0 2 0;
#X connect 1 0 0 0;
