#N canvas 3062 466 879 512 12;
#X obj 471 231 +;
#X floatatom 471 278 5 0 0 0 - - -;
#X obj 655 233 *;
#X floatatom 655 273 5 0 0 0 - - -;
#X obj 470 362 /;
#X floatatom 470 399 5 0 0 0 - - -;
#X obj 655 360 -;
#X floatatom 655 396 5 0 0 0 - - -;
#X floatatom 111 277 5 0 0 0 - - -;
#X floatatom 295 272 5 0 0 0 - - -;
#X floatatom 110 398 5 0 0 0 - - -;
#X floatatom 295 395 5 0 0 0 - - -;
#X obj 111 233 + 5;
#X obj 295 232 * 5;
#X obj 110 361 / 5;
#X obj 295 359 - 5;
#X text 63 44 Example: Basic mathematics;
#X text 105 106 Attribute -> default value;
#X text 152 187 <- Change the value;
#X floatatom 111 189 5 0 0 0 - - -;
#X floatatom 295 189 5 0 0 0 - - -;
#X floatatom 441 184 5 0 0 0 - - -;
#X floatatom 508 183 5 0 0 0 - - -;
#X floatatom 633 182 5 0 0 0 - - -;
#X floatatom 691 182 5 0 0 0 - - -;
#X floatatom 76 324 5 0 0 0 - - -;
#X floatatom 264 323 5 0 0 0 - - -;
#X floatatom 439 326 5 0 0 0 - - -;
#X floatatom 520 326 5 0 0 0 - - -;
#X floatatom 622 323 5 0 0 0 - - -;
#X floatatom 698 323 5 0 0 0 - - -;
#X text 443 106 Calculate with left and right inlet Note: Left inlet
is the trigger for the calculation. The change of value of the right
inlet doesn't trigger the calculation.;
#X connect 0 0 1 0;
#X connect 2 0 3 0;
#X connect 4 0 5 0;
#X connect 6 0 7 0;
#X connect 12 0 8 0;
#X connect 13 0 9 0;
#X connect 14 0 10 0;
#X connect 15 0 11 0;
#X connect 19 0 12 0;
#X connect 20 0 13 0;
#X connect 21 0 0 0;
#X connect 22 0 0 1;
#X connect 23 0 2 0;
#X connect 24 0 2 1;
#X connect 25 0 14 0;
#X connect 26 0 15 0;
#X connect 27 0 4 0;
#X connect 28 0 4 1;
#X connect 29 0 6 0;
#X connect 30 0 6 1;
