#N canvas 275 158 557 453 10;
#X obj 45 289 sendOSC;
#X msg 46 212 disconnect;
#X obj 46 166 select 0 1;
#X obj 46 126 tgl 15 0 empty empty empty 17 7 0 10 -262144 -1 -1 1
1;
#X floatatom 150 147 5 0 0 0 - - -;
#X floatatom 307 214 5 0 0 0 - - -;
#X text 42 91 Send data;
#X text 300 93 Receive data;
#X text 94 257 Specify IP and port;
#X text 100 288 <-- Check the help;
#X text 402 131 <-- Check the help;
#X text 325 152 Attribute: port number;
#X text 40 25 Example: OSCCommunication;
#X text 40 42 Send/receive the data to/from the localhost.;
#X obj 307 132 dumpOSC 3000;
#X msg 74 238 connect localhost 3000;
#X text 176 105 comment;
#X msg 150 198 send test \$1;
#X floatatom 195 170 5 0 0 0 - - -;
#X obj 307 179 route test;
#X connect 1 0 0 0;
#X connect 2 0 1 0;
#X connect 2 1 15 0;
#X connect 3 0 2 0;
#X connect 4 0 17 0;
#X connect 14 0 19 0;
#X connect 15 0 0 0;
#X connect 17 0 0 0;
#X connect 18 0 17 0;
#X connect 19 0 5 0;
