#N canvas 3043 209 644 819 10;
#X obj 143 539 earplug~ 0 1;
#X obj 144 113 noise~;
#X obj 143 588 dac~;
#X msg 34 145 \; pd dsp \$1;
#X obj 34 107 tgl 15 0 empty empty empty 17 7 0 10 -262144 -1 -1 0
1;
#X obj 145 219 *~;
#X obj 188 157 hsl 128 15 0 127 0 0 empty empty empty -2 -8 0 10 -262144
-1 -1 600 1;
#X obj 185 182 / 127;
#X floatatom 187 453 5 0 360 0 - - -;
#X text 165 430 Azimuth: 0-360;
#X floatatom 295 454 5 -40 90 0 - - -;
#X text 281 431 Elevation: -40-90;
#X obj 187 497 line;
#X msg 187 474 \$1 50;
#X obj 295 499 line;
#X msg 295 476 \$1 50;
#X text 198 234 Distance;
#X text 232 139 Volume;
#X obj 144 395 /~ 1;
#X obj 205 365 / 0.15;
#X obj 205 329 expr $f1 \; if($f1 <= 0.15 \, 0.15 \, $f1);
#X floatatom 205 257 5 0 0 0 - - -;
#X obj 205 279 * 0.1;
#X text 238 536 Binaural simulation <- Check the Help;
#X floatatom 205 303 5 0 0 0 - - -;
#X text 249 305 e.g. Minimum distance = 0.15;
#X text 27 20 Example: Binaural;
#X text 26 38 Change the azimuth \, elevation and distance. Hear how
it changes.;
#X text 193 112 Generate white noise;
#X text 255 371 As the distance increases \, the volume decreases;
#X connect 0 0 2 0;
#X connect 0 1 2 1;
#X connect 1 0 5 0;
#X connect 4 0 3 0;
#X connect 5 0 18 0;
#X connect 6 0 7 0;
#X connect 7 0 5 1;
#X connect 8 0 13 0;
#X connect 10 0 15 0;
#X connect 12 0 0 1;
#X connect 13 0 12 0;
#X connect 14 0 0 2;
#X connect 15 0 14 0;
#X connect 18 0 0 0;
#X connect 19 0 18 1;
#X connect 20 1 19 0;
#X connect 21 0 22 0;
#X connect 22 0 24 0;
#X connect 24 0 20 0;
