#N canvas 317 0 974 670 10;
#X text 99 329 Receive data;
#X obj 107 65 dumpOSC 3031;
#X text 31 570 Distance;
#X text 94 579 Azimuth;
#X text 169 579 Elevation;
#X text 117 46 Send data;
#X obj 538 9 r trigger;
#X obj 538 40 select 0 1;
#X obj 537 83 bng 15 250 50 0 empty empty empty 17 7 0 10 -262144 -1
-1;
#X obj 566 97 bng 15 250 50 0 empty empty empty 17 7 0 10 -262144 -1
-1;
#X text 514 57 stop;
#X text 569 65 start;
#X msg 643 26 \; pd dsp \$1;
#X obj 537 238 readsf~;
#X obj 538 306 /~ 1;
#X obj 624 339 / 0.15;
#X obj 702 274 expr $f1 \; if($f1 <=0.15 \, 0.15 \, $f1);
#X floatatom 849 344 5 0 0 0 - - -;
#X floatatom 565 468 5 0 0 0 - - -;
#X floatatom 621 466 5 0 0 0 - - -;
#X obj 416 467 vu 15 120 empty empty -1 -8 0 10 -66577 -1 1 0;
#X obj 424 361 env~ 128;
#X obj 414 406 - 100;
#X symbolatom 1128 277 10 0 0 0 - - -;
#X symbolatom 1138 287 10 0 0 0 - - -;
#X obj 49 549 s Dis;
#X obj 108 560 s Azi;
#X obj 172 560 s Ele;
#X floatatom 56 473 5 0 0 0 - - -;
#X floatatom 124 473 5 0 0 0 - - -;
#X floatatom 179 476 5 0 0 0 - - -;
#X obj 99 351 r messagePos;
#X msg 72 422 \$1;
#X msg 135 414 \$2;
#X msg 226 408 \$3;
#X obj 738 503 * 0.01;
#X floatatom 723 540 5 0 0 0 - - -;
#X obj 560 387 r Azi;
#X obj 624 392 r Ele;
#X obj 722 580 s dist_volume;
#X obj 701 230 r dist_volume;
#N canvas 599 139 450 300 OSC_receiver 0;
#X restore 790 32 pd OSC_receiver;
#X obj 730 464 r Dis;
#X obj 61 247 s trigger;
#X floatatom 84 190 5 0 0 0 - - -;
#X floatatom 147 186 5 0 0 0 - - -;
#X obj 103 120 route TriggerOnOff Volume Position;
#X obj 136 254 s volume;
#X obj 256 246 print;
#X obj 207 165 s messagePos;
#X msg 582 146 1;
#X msg 536 146 0;
#X obj 520 513 earplug~ 0 1;
#X obj 509 590 dac~ 1 2;
#X msg 614 189 open ./SoundSource/taxi.wav \, 1;
#X text 758 538 cm;
#X text 11 121 Decompose data;
#X connect 1 0 46 0;
#X connect 6 0 7 0;
#X connect 6 0 12 0;
#X connect 7 0 8 0;
#X connect 7 1 9 0;
#X connect 8 0 51 0;
#X connect 9 0 50 0;
#X connect 13 0 14 0;
#X connect 13 1 54 0;
#X connect 14 0 21 0;
#X connect 14 0 52 0;
#X connect 15 0 14 1;
#X connect 16 1 17 0;
#X connect 16 1 15 0;
#X connect 18 0 52 1;
#X connect 19 0 52 2;
#X connect 21 0 22 0;
#X connect 22 0 20 0;
#X connect 28 0 25 0;
#X connect 29 0 26 0;
#X connect 30 0 27 0;
#X connect 31 0 32 0;
#X connect 31 0 33 0;
#X connect 31 0 34 0;
#X connect 32 0 28 0;
#X connect 33 0 29 0;
#X connect 34 0 30 0;
#X connect 35 0 36 0;
#X connect 36 0 39 0;
#X connect 37 0 18 0;
#X connect 38 0 19 0;
#X connect 40 0 16 0;
#X connect 42 0 35 0;
#X connect 44 0 43 0;
#X connect 45 0 47 0;
#X connect 46 0 44 0;
#X connect 46 1 45 0;
#X connect 46 2 49 0;
#X connect 46 3 48 0;
#X connect 50 0 54 0;
#X connect 51 0 13 0;
#X connect 52 0 53 0;
#X connect 52 1 53 1;
#X connect 54 0 13 0;
